# xmcd
#
# Track frame offsets: 
#        150
#        27083
#        42791
#        63405
#        80019
#        94153
#
# Disc length: 1902 seconds
#
# Revision: 0
# Processed by: cddbd v1.5.2PL0 Copyright (c) Steve Scherf et al.
# Submitted via: ExactAudioCopy v0.95b4
#
DISCID=43076c06
DTITLE=Teb Bandru - Another Band That Could Have Been
DYEAR=2005
DGENRE=Blues
TTITLE0=Steppin Out
TTITLE1=Imagine
TTITLE2=Mr. Jones
TTITLE3=Small Town
TTITLE4=Throw It All Away
TTITLE5=Jam
EXTD=
EXTT0=
EXTT1=
EXTT2=
EXTT3=
EXTT4=
EXTT5=
PLAYORDER=
